<svg viewBox="0 0 24 24" fill="none" xmlns="http://www.w3.org/2000/svg">
<mask id="mask0_company_filled_24" style="mask-type:luminance" maskUnits="userSpaceOnUse" x="2" y="1" width="20" height="21">
<path d="M21.4286 1.71429H2V21.7143H21.4286V1.71429Z" fill="white" />
</mask>
<g mask="url(#mask0_company_filled_24)">
<path fill-rule="evenodd" clip-rule="evenodd" d="M6.85715 6.71429V4.71429C6.85715 3.05744 8.16192 1.71429 9.77144 1.71429H13.6572C15.2667 1.71429 16.5714 3.05744 16.5714 4.71429V6.71429H18.5143C20.1239 6.71429 21.4286 8.05744 21.4286 9.71429V18.7143C21.4286 20.3712 20.1239 21.7143 18.5143 21.7143H4.91429C3.30478 21.7143 2 20.3712 2 18.7143V9.71429C2 8.05744 3.30478 6.71429 4.91429 6.71429H6.85715ZM8.80001 4.71429C8.80001 4.16201 9.23493 3.71429 9.77144 3.71429H13.6572C14.1937 3.71429 14.6286 4.16201 14.6286 4.71429V6.71429H8.80001V4.71429ZM14.6286 8.71429H8.80001V19.7143H14.6286V8.71429ZM16.5714 19.7143V8.71429H18.5143C19.0508 8.71429 19.4857 9.162 19.4857 9.71429V18.7143C19.4857 19.2666 19.0508 19.7143 18.5143 19.7143H16.5714ZM6.85715 19.7143H4.91429C4.37779 19.7143 3.94286 19.2666 3.94286 18.7143V9.71429C3.94286 9.16201 4.37779 8.71429 4.91429 8.71429H6.85715V19.7143Z" fill="#690085" />
<path d="M14.6286 8.71429H8.80001V19.7143H14.6286V8.71429Z" fill="#690085" />
<path d="M6.85715 19.7143H4.91429C4.37779 19.7143 3.94286 19.2666 3.94286 18.7143V9.71429C3.94286 9.16201 4.37779 8.71429 4.91429 8.71429H6.85715V19.7143Z" fill="#690085" />
<path d="M16.5714 19.7143V8.71429H18.5143C19.0508 8.71429 19.4857 9.162 19.4857 9.71429V18.7143C19.4857 19.2666 19.0508 19.7143 18.5143 19.7143H16.5714Z" fill="#690085" />
</g>
</svg>
