<svg viewBox="0 0 24 24" fill="none" xmlns="http://www.w3.org/2000/svg">
<mask id="mask0_company_24" style="mask-type:luminance" maskUnits="userSpaceOnUse" x="2" y="2" width="20" height="20">
<path d="M21.4286 2H1.99998V21.4286H21.4286V2Z" fill="white" />
</mask>
<g mask="url(#mask0_company_24)">
<path fill-rule="evenodd" clip-rule="evenodd" d="M6.85713 6.85715V4.91429C6.85713 3.30478 8.16191 2 9.77142 2H13.6571C15.2667 2 16.5714 3.30478 16.5714 4.91429V6.85715H18.5143C20.1238 6.85715 21.4286 8.16192 21.4286 9.77144V18.5143C21.4286 20.1239 20.1238 21.4286 18.5143 21.4286H4.91427C3.30476 21.4286 1.99998 20.1239 1.99998 18.5143V9.77144C1.99998 8.16192 3.30476 6.85715 4.91427 6.85715H6.85713ZM8.79999 4.91429C8.79999 4.37779 9.23492 3.94286 9.77142 3.94286H13.6571C14.1937 3.94286 14.6286 4.37779 14.6286 4.91429V6.85715H8.79999V4.91429ZM14.6286 8.80001H8.79999V19.4857H14.6286V8.80001ZM16.5714 19.4857V8.80001H18.5143C19.0508 8.80001 19.4857 9.23492 19.4857 9.77144V18.5143C19.4857 19.0508 19.0508 19.4857 18.5143 19.4857H16.5714ZM6.85713 19.4857H4.91427C4.37777 19.4857 3.94284 19.0508 3.94284 18.5143V9.77144C3.94284 9.23493 4.37777 8.80001 4.91427 8.80001H6.85713V19.4857Z" fill="#222222" />
</g>
</svg>
